<?xml version="1.0" encoding="utf-8"?>
<!-- Generator: Adobe Illustrator 24.1.1, SVG Export Plug-In . SVG Version: 6.00 Build 0)  -->
<svg version="1.1" id="Layer_1" xmlns="http://www.w3.org/2000/svg" xmlns:xlink="http://www.w3.org/1999/xlink" x="0px" y="0px"
	 viewBox="0 0 320.2 311" style="enable-background:new 0 0 320.2 311;" xml:space="preserve">
<style type="text/css">
	.st0{fill:#1EA1F1;}
	.st1{fill:#DD4C36;}
	.st2{fill:#DC4026;}
	.st3{fill:#DB3C20;}
</style>
<path class="st0" d="M176.4,108.5c14.1-2.6,26.4-4.8,37.2-13.5c-12.5-1.9-21.3-7.8-25.8-19.6c3.7,0,7.1,0,10.5,0
	c0.1-0.3,0.3-0.6,0.4-0.8c-1.3-0.7-2.5-1.4-3.8-2c-9.1-4.1-14.7-11.1-16.9-20.8c-0.9-4.2,0.3-5.2,4.4-4c2.1,0.6,4.3,1.1,6.6,1.2
	c-11.8-11.4-14.7-25.3-7.2-37.8C197.2,28.8,216.3,39,240.3,41c0-2.4,0-4.7,0-6.9c0.1-11.5,5.4-20.1,15.5-25.3
	c10.1-5.2,20.5-4.7,29.5,2.2c4.3,3.3,7.8,3.5,12.1,1.6c1.2-0.5,2.4-1.1,3.7-1.4c1.4-0.2,3-0.1,4.4-0.1c-0.4,1.5-0.5,3.2-1.3,4.3
	c-1.7,2.3-3.7,4.4-6.3,7.3c3.8-0.5,6.9-0.8,9.9-1.2c0.4,0.3,0.7,0.6,1.1,1c-1.8,2.2-3.3,4.9-5.5,6.6c-4.3,3.3-6,6.9-6.2,12.8
	c-1.4,46.7-42.6,82.3-88.9,76.9c-9.1-1.1-17.9-4.5-26.7-7C180.1,111.4,178.9,110.1,176.4,108.5z"/>
<path d="M96.9,11c2.5,0.5,4.9,1.1,7.4,1.6c28.9,6.4,49.8,30.1,52.7,59.7c2.9,30.3-14.8,58.9-43.1,69.6c-0.6,0.2-1.3,0.5-2,0.7
	c-3.4,0.9-5.1-0.5-5.1-4.1c0-5.5,0.1-11,0.1-16.5c0-4.8-0.8-9.4-4.2-13.2c3.1-0.7,6.1-1.3,9-2.1c13-3.7,20.1-12.7,21.1-26.2
	c0.6-8.4-0.4-16.2-6-22.9c-0.4-0.5-0.3-1.6-0.1-2.4c1.1-4.7,0.8-9.3-0.5-13.9c-0.6-2.3-1.9-3.1-3.8-2.4c-4.6,1.8-9.1,3.9-13.7,5.7
	c-1.2,0.5-2.8,0.9-4,0.6c-9.6-2-19.2-2.3-28.7,0c-2,0.5-3.4,0.1-5.2-0.8c-4.1-2.1-8.5-3.8-12.8-5.5c-2.2-0.8-4-0.2-4.2,2.6
	c-0.3,4.2-0.7,8.5-0.5,12.7c0.1,1.9,0.1,3.2-1.1,4.8c-8.9,12-6.2,33.4,5.4,42.5c5.7,4.5,12.4,6,19.1,6.9c-1.1,2.7-2.1,5.5-3.2,8.1
	c-0.3,0.6-1,1.2-1.6,1.5c-7,2.9-13.5,0.9-17.7-5.6c-2.3-3.6-5-6.5-9.4-7.3c-1.4-0.3-2.8,0-4.2,0c-0.1,0.3-0.3,0.7-0.4,1
	c0.8,0.9,1.6,1.7,2.4,2.6c2.4,2.9,5.5,5.4,7,8.7c3.4,7.4,8.9,10.4,16.6,10.3c2.2,0,4.4-0.3,7-0.5c0,4.1,0.2,8.4-0.1,12.6
	c-0.1,2.8-2.3,3.6-5.7,2.4c-8.2-2.9-15.5-7.2-22-13c-11.8-10.6-19.2-23.8-21.8-39.6c-0.2-1-0.6-2-1-2.9c0-5.4,0-10.8,0-16.2
	c0.3-1.1,0.8-2.1,1-3.2c5.7-27.9,22.1-45.9,49.2-54c3.2-0.9,6.4-1.5,9.6-2.3C87.3,11,92.1,11,96.9,11z"/>
<path class="st1" d="M143.1,227.4c0-1.9,0-3.8,0-5.6c1.4-1.8,2.7-3.8,4.3-5.4c14.4-14.5,28.8-28.9,43.2-43.3
	c0.8-0.8,1.6-1.5,2.9-2.8c5.9,6.3,11.6,12.4,17.5,18.7c-1.6,6.4,0,10.5,6,14.7c0.2,0.4,0.5,0.8,0.7,1.2c0,14.1,0,28.1-0.1,42.2
	c-0.2,0.2-0.5,0.5-0.7,0.7c-4.5,3-7,7.1-6.4,12.7c0.6,5.1,7.5,11.9,11.5,11c5.4-1.1,10.4-3.3,12.1-9.3c1.6-5.8-0.5-10.5-5.3-14.1
	c-0.2-0.4-0.4-0.7-0.6-1.1c0-13.6,0-27.2,0-40.8c0.3,0,0.6,0,0.9-0.1c4.2,4.1,8.3,8.3,12.6,12.2c1.8,1.7,2.3,3.3,2,5.8
	c-1.3,9.1,7.4,16,15.9,13c5.9-2.1,9.3-8.4,7.9-14.3c-1.5-6-7.3-9.8-13.6-9.2c-1.4,0.1-3.2-0.5-4.2-1.5c-4.5-4.2-9-8.6-13.2-13.2
	c-1.1-1.2-1.8-3.2-1.8-4.8c0.3-8.4-5.3-14.1-13.7-13.4c-1.1,0.1-2.6,0-3.2-0.6c-5.8-5.6-11.4-11.3-17.4-17.2
	c4.5-4.4,8.7-8.5,12.8-12.6c6.2-6.2,11.5-6.2,17.8,0.1c21.9,21.9,43.8,43.8,65.6,65.6c6.3,6.3,6.3,11.6,0.1,17.8
	c-21.5,21.5-43.1,43.1-64.7,64.6c-2.2,2.1-4.9,3.7-7.4,5.6c-1.6,0-3.3,0-4.9,0c-2.5-1.9-5.1-3.6-7.3-5.8
	c-21.2-21.1-42.4-42.3-63.6-63.6C146.7,232.6,145,229.9,143.1,227.4z"/>
<g>
	<path d="M13.4,248.6c4,8.7,10.5,12.3,19.6,12.2c2.6,0,5.1-0.4,8.3-0.6c0,4.9,0.2,9.9-0.1,14.9c-0.2,3.3-2.7,4.2-6.8,2.8
		c-1.4-0.5-2.7-1-4.1-1.6c0.1,1,0.2,2,0.2,3v3.3c18.1,0,36.2,0,54.3,0v-4c-2.6,0-3.9-1.7-3.9-5.2c0-6.5,0.2-13,0.2-19.5
		c0-5.7-0.9-11.1-5-15.6c3.7-0.8,7.2-1.5,10.6-2.4c15.3-4.3,23.8-15,25-30.9c0.7-9.9-0.4-19.1-7.1-27c-0.5-0.6-0.3-1.9-0.1-2.8
		c1.3-5.5,0.9-11-0.5-16.4c-0.7-2.7-2.2-3.7-4.5-2.8c-5.4,2.1-10.7,4.6-16.2,6.7c-1.5,0.6-3.3,1.1-4.8,0.7
		c-11.3-2.4-22.7-2.7-33.9,0c-2.3,0.6-4,0.2-6.2-0.9c-4.9-2.5-10-4.5-15.1-6.5c-2.6-1-4.7-0.2-4.9,3c-0.3,5-0.8,10-0.6,15
		c0.1,2.2,0.1,3.8-1.3,5.7c-10.6,14.2-7.3,39.4,6.4,50.2c6.7,5.3,14.7,7.1,22.6,8.1c-1.2,3.2-2.4,6.4-3.8,9.6
		c-0.3,0.7-1.1,1.4-1.9,1.7c-8.3,3.4-15.9,1-20.9-6.6c-2.7-4.2-5.9-7.7-11.1-8.6c-1.6-0.3-3.3,0-5,0c-0.2,0.4-0.3,0.8-0.5,1.2
		c0.9,1,1.9,2,2.8,3.1C7.9,241.7,11.6,244.7,13.4,248.6z"/>
</g>
<path class="st2" d="M199.8,145.8c0.3,0.6,0.7,1.1,1,1.7C200.5,147,200.1,146.4,199.8,145.8z"/>
<path class="st3" d="M215.7,149.5c0.2-0.3,0.3-0.7,0.5-1c0.3,0.3,0.5,0.6,0.8,0.9C216.5,149.4,216.1,149.5,215.7,149.5z"/>
<path class="st2" d="M200.7,207.2c-0.3,0.3-0.7,0.6-1,1C200.1,207.9,200.4,207.5,200.7,207.2z"/>
<path class="st3" d="M216.6,208.8c-0.3-0.5-0.6-1-0.9-1.5C216,207.7,216.3,208.3,216.6,208.8z"/>
</svg>
