<?xml version="1.0" encoding="utf-8"?>
<!-- Generator: Adobe Illustrator 24.1.1, SVG Export Plug-In . SVG Version: 6.00 Build 0)  -->
<svg version="1.1" id="Layer_1" xmlns="http://www.w3.org/2000/svg" xmlns:xlink="http://www.w3.org/1999/xlink" x="0px" y="0px"
	 viewBox="0 0 320.2 311" style="enable-background:new 0 0 320.2 311;" xml:space="preserve">
<style type="text/css">
	.st0{fill:#FFFFFF;stroke:#000000;stroke-miterlimit:10;}
	.st1{fill:#FFFFFF;}
	.st2{fill:#FFFFFF;stroke:#FFFFFF;stroke-miterlimit:10;}
</style>
<path class="st0" d="M317,115.4c-0.2-0.8-0.5-1.6-0.7-2.4c-0.1-0.3-0.2-0.6-0.3-0.8c-0.1-0.5-0.3-1-0.5-1.6
	c-0.3-0.9-0.6-1.8-0.9-2.7c0-0.1-0.1-0.2-0.1-0.3c-0.2-0.6-0.4-1.3-0.6-1.9c-0.6-1.6-1.1-3.2-1.8-4.7c-0.2-0.5-0.4-1-0.6-1.4
	s-0.4-0.9-0.5-1.3c-0.3-0.7-0.6-1.5-0.9-2.2c-0.3-0.6-0.6-1.3-0.8-1.9c-0.3-0.6-0.5-1.2-0.8-1.8c-0.3-0.7-0.7-1.5-1-2.2
	c-1.6-3.3-3.3-6.5-5.2-9.6c-0.3-0.5-0.6-1-0.9-1.5c-1-1.6-1.9-3.1-3-4.7c-0.2-0.3-0.5-0.7-0.7-1c-1.7-2.5-3.4-4.9-5.2-7.3
	c-0.4-0.5-0.8-1.1-1.2-1.6c-1.2-1.6-2.5-3.1-3.8-4.7c-0.5-0.6-1.1-1.2-1.6-1.9c-1.6-1.9-3.4-3.8-5.1-5.6c-0.4-0.4-0.8-0.8-1.1-1.2
	c-0.4-0.4-0.7-0.7-1.1-1.1c-0.2-0.2-0.3-0.3-0.5-0.5c-0.1-0.1-0.2-0.2-0.4-0.4c-0.2-0.2-0.4-0.4-0.6-0.6c-0.3-0.3-0.5-0.5-0.8-0.8
	c-0.6-0.6-1.3-1.2-1.9-1.8c-1.4-1.3-2.8-2.6-4.3-3.9c-0.6-0.5-1.2-1.1-1.8-1.6c-0.7-0.6-1.4-1.2-2.1-1.7c-1.4-1.1-2.8-2.2-4.3-3.3
	c-0.5-0.4-1.1-0.8-1.6-1.2c-1.5-1.1-3-2.1-4.5-3.1c-0.7-0.5-1.5-1-2.3-1.4c-0.9-0.5-1.7-1.1-2.6-1.6c-0.4-0.2-0.8-0.5-1.2-0.7
	s-0.8-0.5-1.2-0.7c-1.9-1.1-3.8-2.1-5.7-3.1c-0.6-0.3-1.2-0.6-1.8-0.9c-2.5-1.2-5-2.4-7.6-3.5c-0.5-0.2-1-0.4-1.5-0.6
	c-0.9-0.4-1.8-0.7-2.8-1.1l0,0c-0.9-0.3-1.9-0.7-2.8-1c-0.5-0.2-0.9-0.3-1.4-0.5c-0.8-0.3-1.7-0.6-2.5-0.8c-0.8-0.3-1.7-0.5-2.5-0.8
	c-0.9-0.3-1.7-0.5-2.6-0.7s-1.7-0.5-2.6-0.7c-11.7-3-23.4-4.8-35.3-4.6c10.9,0.2,21.6,1.9,32.3,4.6c22.7,5.8,42.7,16.9,59.8,32.9
	c1,0.9,2,1.9,3,2.8c18.9,18.6,32.5,40.6,39.5,66.5c3.2,11.7,3.4,23.8,3.2,35.8c-0.3,23.4-5.1,45.8-15.1,67c-0.1,0.1-0.1,0.2-0.2,0.4
	c0,0.1-0.1,0.1-0.1,0.2c-1.6,3.2-3.4,6.4-5.2,9.5c0.2,1.1,0.4,2.3,0.6,3.6c0.8-1,1.2-1.5,1.6-2.1c2.1-3.9,4.4-7.6,6.3-11.6
	c10-21.2,14.8-43.6,15.1-67C320.4,139.2,320.2,127.1,317,115.4z M250.6,121.1c0-0.2,0-0.3,0-0.5c-0.6-0.3-1.3-0.6-2-0.9
	c-0.3-0.1-0.6-0.2-0.9-0.3c-0.1,0.7-0.2,1.2-0.2,1.6c0.7,8.4-1.3,16.2-4.9,23.6c-0.3,0.7-0.6,1.3-1,2c-6.9,13-16.9,23.4-28.1,32.6
	c-3.5,2.9-7.1,5.5-11,8.4c0.2,0.6,0.4,1.2,0.6,1.8c4.8-3.6,9.2-6.8,13.4-10.2c11.3-9.2,21.3-19.6,28.1-32.6
	C248.9,138.6,251.3,130.2,250.6,121.1z M128.4,117.2c-10.7,3.1-20.5,7.8-28.9,15.1c-7,6.1-12.4,13.3-16.5,21.2
	c-0.1,0.2-0.2,0.4-0.3,0.7c-2.3,4.6-4.3,9.4-5.8,14.4c-1,3.3-1.8,6.7-2.6,10.3c-0.1,0.3-0.1,0.6-0.2,0.8c0.9,0.5,1.8,0.9,2.7,1.4
	c1.1-4.4,1.9-8.6,3.1-12.6c4.4-14.1,11.5-26.5,22.7-36.3c8.4-7.4,18.2-12.1,28.9-15.1c3.2-0.9,6.4-1.5,9.5-1.6
	C136.8,115.4,132.7,116,128.4,117.2z M90.2,23.3c8,0.1,16,0.8,24.1,2.2c0.7,0.1,1.5,0.1,2.2-0.1C107.8,23.9,99,23.1,90.2,23.3z
	 M46.1,147.6c-0.2,0-0.3-0.1-0.5-0.1l0,0c-0.3,0.5-0.5,1.1-0.8,1.6c-1.1,2.3-2.3,4.6-3.2,7c-3.4,8.5-5.4,17.4-6.8,26.5
	c-2.3,15.2-2.6,30.5-1.9,45.8c0.1,1.4,0.2,2.8,0.2,4.2c0.3,0.7,0.7,1.4,1,2.1l0.1,0.1l0,0l0,0c0.3,0.7,0.6,1.3,0.9,2
	c0.3,0.6,0.7,1.2,1,1.8c0.2-3.5-0.1-6.9-0.3-10.3c-0.7-15.3-0.4-30.6,1.9-45.8c1.3-9.1,3.3-18,6.8-26.5c0.7-1.7,1.4-3.3,2.2-5
	C46.5,149.9,46.3,148.8,46.1,147.6z M27.2,60.4c-4.6,1-9,2.3-13.5,3.5c-0.1,0.2-0.3,0.5-0.4,0.7c1.1-0.2,1.7-0.3,2.3-0.4
	c4.9-1.3,9.8-2.7,14.7-3.8c2.3-0.5,4.5-0.8,6.8-0.9C33.8,59.3,30.5,59.7,27.2,60.4z"/>
<path class="st0" d="M320.2,151.2c-0.3,23.4-5.1,45.8-15.1,67c-1.9,4-4.2,7.7-6.3,11.6c-0.3,0.6-0.8,1.1-1.6,2.1
	c-0.2-1.3-0.4-2.5-0.6-3.6s-0.4-2.1-0.6-3.2c-2.5-12.2-4.7-24.5-7.5-36.7c-3.4-14.8-8-29.1-14.6-42.8c-3.9-8-8.3-15.5-15.1-21.4
	c-2.4-2-4.9-3.7-8.1-4.8c0,0.5-0.1,0.8-0.1,1.2c0,0.2,0,0.3,0,0.5c0.8,9.1-1.6,17.6-5.9,25.6c-6.9,13-16.9,23.4-28.1,32.6
	c-4.2,3.4-8.6,6.6-13.4,10.2c-0.2-0.6-0.4-1.2-0.6-1.8c-0.7-1.9-1.2-3.6-1.8-5.2c-4.9-14-11-27.4-19.3-39.8
	c-5.6-8.4-12.1-16.1-20.7-21.6c-6.3-4-12.9-5.8-19.8-5.5c-3.1,0.1-6.3,0.7-9.5,1.6c-10.7,3.1-20.5,7.8-28.9,15.1
	c-11.2,9.8-18.3,22.2-22.7,36.3c-1.3,4-2,8.1-3.1,12.6c-0.9-0.5-1.8-0.9-2.7-1.4c-12.9-7.1-22.4-16.7-25-32.2
	c-0.2,0-0.3-0.1-0.5-0.1c-0.6,1.2-1.2,2.4-1.8,3.6c-0.8,1.6-1.6,3.3-2.2,5c-3.4,8.5-5.4,17.4-6.8,26.5c-2.3,15.2-2.6,30.5-1.9,45.8
	c0.2,3.4,0.4,6.8,0.3,10.3c-0.3-0.6-0.7-1.2-1-1.8c-0.7-1.4-1.4-2.9-2.1-4.3c-5.8-12.2-11-24.6-15.3-37.4
	c-4.2-12.2-7.5-24.6-9.6-37.3c-1.9-11.8-2.7-23.7-1.4-35.6c2.3-21,10.4-39,28-51.8c3.5-2.6,7.6-4.3,11.5-6.4
	c0.8-0.5,1.8-0.8,2.8-1.2c-1.2-2-3-2.5-4.8-2.9c-2.4-0.5-4.9-0.6-7.3-0.5c-2.3,0.1-4.6,0.4-6.8,0.9c-4.9,1.1-9.8,2.5-14.7,3.8
	c-0.6,0.2-1.1,0.2-2.3,0.4c0.1-0.2,0.3-0.5,0.4-0.7c0.9-1.7,1.7-3.2,2.6-4.6c9.9-15.9,24.3-25.9,42-31.2c10.5-3.1,21.2-4.6,31.9-4.7
	c8.7-0.1,17.5,0.6,26.3,2.1c0.3,0,0.5,0.1,0.8,0.1c1,0.2,2.3,0,3.1-0.5c12.8-7.4,26.6-12.1,41.2-14.8c6-1.1,11.9-1.6,17.8-1.7
	c11.9-0.2,23.6,1.6,35.3,4.6c22.7,5.8,42.7,16.9,59.8,32.9c20.5,19.2,35.1,42.1,42.5,69.3C320.2,127.1,320.4,139.2,320.2,151.2z"/>
<path class="st0" d="M283.3,235.1c-2.7-11-8.4-20.5-16-27.8c-14.2-13.5-35-19.2-55.1-13c-16.5,5.1-28.4,15.8-35.4,31.7
	c-1.1,2.4-1.9,5-2.9,7.5c-10.7-4.3-10.7-4.3-21.3-0.4c-0.3-0.8-0.6-1.6-0.9-2.4c-0.5-1.5-1.1-2.9-1.7-4.3c-3-7.3-7.5-13.7-13-18.9
	c-14.6-13.8-36.2-19.5-56.1-12.8c-17.4,5.8-29.4,17.4-35.8,34.7c-4.9,13.4-4.7,27,0.8,40c3,7.1,6.9,13.2,11.6,18.2
	c8.2,8.7,19,14.2,32.2,16.4c14.5,2.4,28.1-0.8,40.1-9.2c16.4-11.6,24.7-27.6,24.6-47.9c0-1.2,0.5-2.6,1.1-3.6
	c2.3-3.3,6.8-4.5,11-3.1c0.9,0.3,1.6,0.6,2.3,1c2.2,1.4,3.2,3.6,3.2,7.1c-0.1,7.7,1.5,15,4.5,22c2.7,6.4,6.5,12.1,11.1,16.9
	c15,15.8,38.4,21.9,60,14.1C274.7,291.5,290,262.9,283.3,235.1z M57.1,271.8c-0.2-0.2-0.3-0.5-0.4-0.7c-0.2-0.3-0.4-0.6-0.6-1
	c-1-1.6-1.8-3.2-2.6-4.9c-0.3-0.7-0.6-1.4-0.9-2.1c-0.5-1.4-1-2.7-1.4-4.1c-0.1-0.2-0.1-0.3-0.1-0.5c-0.1-0.2-0.1-0.5-0.2-0.7
	c-0.1-0.3-0.2-0.6-0.2-0.9c-0.5-2.2-0.9-4.5-1.1-6.8c0-0.4-0.1-0.8-0.1-1.2v-0.1c0-0.8-0.1-1.6-0.1-2.4v-0.7
	c0.4-25.5,21.2-46.3,46.9-46.2c0.4,0,0.8,0,1.2,0c0.3,0,0.6,0,0.9,0c0.3,0,0.5,0,0.8,0c0.6,0,1.3,0.1,1.9,0.1c1,0.1,2,0.2,2.9,0.4
	c0.3,0,0.6,0.1,0.9,0.1c0.8,0.1,1.6,0.3,2.4,0.5c0.4,0.1,0.8,0.2,1.2,0.3c0.3,0.1,0.6,0.2,0.9,0.3c0.5,0.1,0.9,0.3,1.4,0.4
	c0.3,0.1,0.7,0.2,1,0.3c0.4,0.1,0.8,0.3,1.3,0.5c0.4,0.1,0.7,0.3,1.1,0.4c0.4,0.1,0.7,0.3,1.1,0.4c0.5,0.2,1,0.5,1.5,0.7h0.1
	c0.5,0.3,1.1,0.5,1.6,0.8c0.2,0.1,0.5,0.3,0.7,0.4c0.1,0,0.2,0.1,0.3,0.1c0.4,0.2,0.8,0.5,1.2,0.7c1.2,0.7,2.3,1.5,3.4,2.3
	c0.4,0.3,0.7,0.5,1.1,0.8c0.4,0.3,0.8,0.7,1.2,1c0.2,0.2,0.5,0.4,0.7,0.6c0.6,0.5,1.2,1.1,1.8,1.6c0.2,0.2,0.5,0.5,0.7,0.7
	c0.3,0.3,0.6,0.6,0.9,0.9c-0.2-0.1-0.3-0.3-0.5-0.5c0.2,0.2,0.3,0.3,0.5,0.5l0,0c0.2,0.2,0.4,0.4,0.6,0.6c0.2,0.2,0.3,0.3,0.5,0.5
	c1.2,1.2,2.4,2.5,3.5,3.9c0.3,0.4,0.6,0.7,0.9,1.1c1.9,2.5,3.5,5.2,4.8,8.1c0.2,0.4,0.3,0.7,0.5,1.1c0.5,1.1,0.9,2.3,1.3,3.4
	c0.1,0.4,0.3,0.7,0.4,1.1c0.1,0.4,0.2,0.7,0.3,1c0.1,0.4,0.3,0.9,0.4,1.3c0.1,0.4,0.2,0.8,0.3,1.2c0.1,0.4,0.2,0.7,0.2,1.1
	c0.1,0.4,0.2,0.9,0.3,1.3s0.1,0.8,0.2,1.2c0.1,0.3,0.1,0.5,0.1,0.8c0.1,1,0.3,2,0.3,3.1c0,0.3,0,0.5,0.1,0.8c0,0.1,0,0.2,0,0.2
	c0,0.3,0,0.6,0,1c0,0.5,0,1,0,1.6c0,25.5-21.4,47.4-48.1,46.6c-0.4,0-0.8,0-1.2,0c-0.1,0-0.2,0-0.3,0c-0.3,0-0.6,0-0.9-0.1
	c-0.4,0-0.7-0.1-1.1-0.1c-0.4,0-0.8-0.1-1.1-0.1c-2.7-0.4-5.4-0.9-8-1.8c-0.3-0.1-0.6-0.2-0.8-0.3c-0.2,0-0.3-0.1-0.5-0.2
	c-0.3-0.1-0.6-0.2-0.9-0.3c-1.5-0.5-3-1.2-4.4-1.9c-0.3-0.2-0.6-0.3-0.9-0.5c-0.3-0.2-0.7-0.4-1-0.5c-0.5-0.3-1-0.6-1.5-0.9l0,0
	c-0.5-0.3-1-0.6-1.4-0.9c-0.3-0.2-0.6-0.4-0.9-0.6c-0.3-0.2-0.6-0.4-0.8-0.6c-0.3-0.2-0.6-0.4-0.8-0.6c-0.4-0.3-0.7-0.5-1.1-0.8
	c-0.2-0.2-0.4-0.3-0.6-0.5c-0.4-0.3-0.8-0.6-1.1-0.9c-0.3-0.3-0.6-0.5-0.8-0.8c-0.3-0.3-0.6-0.5-0.8-0.8c-0.3-0.3-0.5-0.5-0.8-0.8
	c-0.1-0.1-0.2-0.1-0.2-0.2c-0.1-0.1-0.3-0.3-0.4-0.5c-0.1,0-0.1-0.1-0.2-0.1c-0.1-0.1-0.1-0.1-0.2-0.2c-0.2-0.2-0.4-0.4-0.6-0.6
	c-0.6-0.5-1.1-1.1-1.6-1.7c-0.4-0.5-0.8-1-1.3-1.4c-0.4-0.5-0.8-1-1.2-1.5s-0.8-1-1.1-1.5C57.8,272.8,57.4,272.3,57.1,271.8z
	 M179.7,246.2c0-25.8,21-46.7,46.8-46.7c13.3-0.2,25.5,5.6,34.1,14.7c9.1,8.6,14.8,20.8,14.8,34.1c-0.1,25.9-21,46.7-47,46.7
	c-13.4,0-25.4-5.7-33.9-14.8C185.3,271.8,179.6,259.6,179.7,246.2z"/>
<path d="M127.4,171.1c6.5,7.1,12.8,14,19.1,20.8c-0.1,0.3-0.1,0.5-0.2,0.6c-4.2,4.6-4.2,4.6-8.3,0.1c-6.9-7.4-13.7-14.9-20.5-22.3
	c-0.4-0.4-0.7-0.9-1.3-1.6c6.7-3,13.3-5.9,20.2-8.9c-6.5-7.3-12.9-14.3-19.4-21.5c1.5-1.3,2.8-2.6,4.2-3.7c0.3-0.3,1.4-0.2,1.6,0.1
	c8.1,8.9,16.2,17.9,24.2,26.9c0.1,0.1,0.1,0.4,0.2,0.8C140.7,165.1,134.2,168,127.4,171.1z"/>
<path class="st1" d="M130.3,214.2L130.3,214.2c-0.2-0.1-0.3-0.3-0.5-0.5C130,213.9,130.2,214,130.3,214.2z"/>
<path class="st0" d="M145.1,248.4c0,25.5-21.4,47.4-48.1,46.6c-0.4,0-0.8,0-1.2,0c-0.1,0-0.2,0-0.3,0c-0.3,0-0.6,0-0.9-0.1
	c-0.4,0-0.7-0.1-1.1-0.1c-0.4,0-0.8-0.1-1.1-0.1c-2.7-0.4-5.4-0.9-8-1.8c-0.3-0.1-0.6-0.2-0.8-0.3c-0.2,0-0.3-0.1-0.5-0.2
	c-0.3-0.1-0.6-0.2-0.9-0.3c-1.5-0.5-3-1.2-4.4-1.9c-0.3-0.2-0.6-0.3-0.9-0.5c-0.3-0.2-0.7-0.4-1-0.5c-0.5-0.3-1-0.6-1.5-0.9l0,0
	c-0.5-0.3-1-0.6-1.4-0.9c-0.3-0.2-0.6-0.4-0.9-0.6c-0.3-0.2-0.6-0.4-0.8-0.6c-0.3-0.2-0.6-0.4-0.8-0.6c-0.4-0.3-0.7-0.5-1.1-0.8
	c-0.2-0.2-0.4-0.3-0.6-0.5c-0.4-0.3-0.8-0.6-1.1-0.9c-0.3-0.3-0.6-0.5-0.8-0.8c-0.3-0.3-0.6-0.5-0.8-0.8c-0.3-0.3-0.5-0.5-0.8-0.8
	c-0.1-0.1-0.2-0.1-0.2-0.2c-0.2-0.2-0.4-0.4-0.6-0.6c0.1,0,0.1,0.1,0.2,0.1c0.2,0.2,0.4,0.4,0.6,0.6c0.3,0.2,0.5,0.5,0.8,0.7
	c0.3,0.3,0.6,0.5,0.9,0.7c0.5,0.4,1,0.8,1.6,1.2c0.3,0.2,0.6,0.4,0.8,0.6c0.3,0.2,0.6,0.4,0.9,0.6s0.6,0.4,0.9,0.6s0.6,0.4,0.9,0.6
	c0.3,0.2,0.6,0.4,0.9,0.5c0.3,0.2,0.6,0.4,0.9,0.5c0.6,0.3,1.2,0.7,1.9,1l0,0c0.6,0.3,1.3,0.6,1.9,0.9c0.3,0.1,0.6,0.3,1,0.4
	c0.3,0.1,0.6,0.3,1,0.4s0.7,0.3,1,0.4s0.7,0.3,1,0.4c0.7,0.3,1.4,0.5,2.1,0.7c0.3,0.1,0.6,0.2,1,0.3h0.1c0.4,0.1,0.7,0.2,1,0.3
	c0.3,0.1,0.5,0.1,0.8,0.2c0.1,0,0.1,0,0.2,0c0.5,0.1,1,0.2,1.5,0.3c0.5,0.1,1.1,0.2,1.6,0.3c0.5,0.1,1.1,0.1,1.6,0.2
	c0.6,0.1,1.1,0.1,1.7,0.2c0.7,0,1.5,0.1,2.2,0.1c26.7,0.7,48.1-21.1,48.1-46.6c0-0.7,0-1.4-0.1-2.1c0-0.9-0.1-1.7-0.2-2.6
	c0-0.3-0.1-0.5-0.1-0.8c-0.2-1.7-0.5-3.3-0.8-4.9c-0.1-0.3-0.1-0.6-0.2-0.9c0-0.2-0.1-0.4-0.1-0.6c-0.1-0.4-0.2-0.7-0.3-1.1
	c-0.2-0.7-0.4-1.5-0.7-2.2c-0.1-0.4-0.3-0.7-0.4-1.1c-1.1-3-2.5-5.9-4.2-8.6c-0.1-0.2-0.3-0.4-0.4-0.6c-0.3-0.4-0.5-0.8-0.8-1.2
	c-1-1.5-2.1-2.9-3.3-4.3c-0.2-0.2-0.4-0.5-0.6-0.7c-0.2-0.2-0.4-0.5-0.6-0.7c0.2,0.2,0.4,0.4,0.6,0.6c0.2,0.2,0.3,0.3,0.5,0.5
	c1.2,1.2,2.4,2.5,3.5,3.9c0.3,0.4,0.6,0.7,0.9,1.1c1.9,2.5,3.5,5.2,4.8,8.1c0.2,0.4,0.3,0.7,0.5,1.1c0.5,1.1,0.9,2.3,1.3,3.4
	c0.1,0.4,0.3,0.7,0.4,1.1c0.1,0.4,0.2,0.7,0.3,1c0.1,0.4,0.3,0.9,0.4,1.3c0.1,0.4,0.2,0.8,0.3,1.2c0.1,0.4,0.2,0.7,0.2,1.1
	c0.1,0.4,0.2,0.9,0.3,1.3s0.1,0.8,0.2,1.2c0.1,0.3,0.1,0.5,0.1,0.8c0.1,1,0.3,2,0.3,3.1c0,0.3,0,0.5,0.1,0.8c0,0.1,0,0.2,0,0.2
	c0,0.3,0,0.6,0,1C145.1,247.4,145.1,247.9,145.1,248.4z"/>
<path class="st0" d="M275.3,248.3c-0.1,25.9-21,46.7-47,46.7c-13.4,0-25.4-5.7-33.9-14.8c8.3,7.9,19.6,12.7,31.9,12.8
	c26,0,46.9-20.8,47-46.7c0.1-12.4-4.8-23.7-12.8-32.1C269.7,222.8,275.4,235,275.3,248.3z"/>
<path class="st0" d="M315,113.4c-0.4-1.6-0.9-3.1-1.4-4.6c-0.2-0.6-0.4-1.1-0.5-1.7c-0.3-1-0.7-2.1-1-3.1c-0.1-0.3-0.2-0.7-0.4-1
	c-0.1-0.3-0.2-0.7-0.4-1c-0.3-0.7-0.5-1.5-0.8-2.2c-0.1-0.3-0.3-0.7-0.4-1c-0.1-0.2-0.1-0.3-0.2-0.5s-0.1-0.3-0.2-0.5
	c-0.3-0.7-0.6-1.5-0.9-2.2c0-0.1-0.1-0.1-0.1-0.2c-0.3-0.7-0.6-1.4-0.9-2.1c-0.4-0.9-0.8-1.7-1.2-2.6c-0.4-0.8-0.7-1.5-1.1-2.3
	c-0.1-0.2-0.2-0.4-0.3-0.6c-0.3-0.6-0.6-1.3-1-1.9c-1.3-2.5-2.6-5-4-7.4c-0.4-0.6-0.7-1.2-1.1-1.8c-0.2-0.4-0.5-0.7-0.7-1.1
	c-0.4-0.7-0.8-1.3-1.3-2c-0.4-0.7-0.9-1.3-1.3-2c-0.1-0.1-0.1-0.2-0.2-0.3c-0.9-1.4-1.9-2.8-2.9-4.1c-0.4-0.6-0.9-1.2-1.3-1.8
	c-0.5-0.7-1-1.3-1.5-2c-1.1-1.4-2.1-2.7-3.3-4.1c-0.5-0.6-1-1.2-1.5-1.7c-0.5-0.6-1-1.2-1.5-1.8c-0.5-0.6-1-1.2-1.6-1.8
	c-0.8-0.9-1.6-1.8-2.5-2.7c-0.6-0.6-1.2-1.3-1.8-1.9c-0.1-0.1-0.2-0.2-0.4-0.4c-0.2-0.2-0.4-0.4-0.6-0.6c-0.3-0.3-0.5-0.5-0.8-0.8
	c-0.2-0.2-0.5-0.5-0.7-0.7c-1.1-1.1-2.1-2.1-3.2-3.1c-17.1-16-37-27.1-59.8-32.9c-11.7-3-23.4-4.8-35.3-4.6
	c10.9,0.2,21.6,1.9,32.3,4.6c6.7,1.7,13.2,3.9,19.4,6.5l0,0c14.9,6.3,28.3,15.1,40.4,26.4c1.7,1.6,3.4,3.2,5,4.8
	c17.9,18.2,30.7,39.5,37.5,64.5c3.2,11.7,3.4,23.8,3.2,35.8c-0.3,23.4-5.1,45.8-15.1,67c-1.3,2.7-2.7,5.3-4.2,7.9
	c-0.4,0.7-0.8,1.5-1.2,2.2c0.2,1.1,0.4,2.3,0.6,3.6c0.6-0.8,1.1-1.3,1.4-1.8c0.1-0.1,0.1-0.2,0.2-0.3c1.3-2.3,2.6-4.5,3.9-6.8
	c0.4-0.7,0.8-1.5,1.2-2.2c0-0.1,0.1-0.1,0.1-0.2c0.4-0.8,0.8-1.6,1.2-2.4c10-21.2,14.8-43.6,15.1-67
	C318.4,137.2,318.2,125.1,315,113.4z M248.7,121.6c0-0.3,0-0.6,0-0.9c0-0.3,0-0.6,0-0.9c0-0.2,0-0.4,0-0.7c0-0.2,0-0.3,0-0.5
	c-0.9-0.4-1.8-0.8-2.9-1.2c-0.1,0.7-0.2,1.2-0.2,1.6c0.8,9.1-1.6,17.6-5.9,25.6c-6.9,13-16.9,23.4-28.1,32.6
	c-3.2,2.6-6.5,5.1-10,7.7c-0.3,0.3-0.7,0.5-1,0.8c0.2,0.6,0.4,1.2,0.6,1.8c0.4-0.3,0.7-0.5,1-0.8c4.4-3.3,8.5-6.3,12.4-9.4
	c11.3-9.2,21.3-19.6,28.1-32.6c0.2-0.4,0.5-0.9,0.7-1.3c0.2-0.4,0.4-0.9,0.6-1.3c1.4-3,2.5-6,3.3-9.1c0.1-0.2,0.1-0.4,0.2-0.7
	c0.1-0.4,0.2-0.8,0.3-1.1c0.1-0.5,0.2-0.9,0.3-1.4c0.3-1.4,0.4-2.9,0.5-4.3c0-0.5,0.1-1,0.1-1.4
	C248.7,123.2,248.7,122.4,248.7,121.6z M126.4,115.2c-10.7,3.1-20.5,7.8-28.9,15.1c-11.2,9.8-18.3,22.2-22.7,36.3
	c-1.1,3.6-1.9,7.3-2.8,11.2c0.7,0.4,1.5,0.8,2.2,1.2c0.1,0.1,0.3,0.2,0.5,0.2c1.1-4.4,1.9-8.6,3.1-12.6c0.2-0.6,0.4-1.3,0.6-1.9
	c0.1-0.4,0.3-0.9,0.4-1.3c0.2-0.6,0.4-1.1,0.6-1.6c0.2-0.4,0.3-0.9,0.5-1.3c0.1-0.3,0.2-0.5,0.3-0.8s0.3-0.7,0.4-1
	c0.2-0.5,0.4-1,0.7-1.6c0.2-0.4,0.3-0.8,0.5-1.1c0.3-0.6,0.5-1.2,0.8-1.7c0.1-0.2,0.2-0.4,0.3-0.7c0.6-1.3,1.3-2.6,2-3.8
	c0.2-0.3,0.4-0.6,0.6-1c0.1-0.1,0.1-0.2,0.2-0.3c0.2-0.4,0.4-0.7,0.6-1.1c0,0,0-0.1,0.1-0.1c0.2-0.4,0.4-0.7,0.6-1
	c2-3.2,4.2-6.2,6.7-9.1c0.2-0.2,0.4-0.4,0.6-0.6c0-0.1,0.1-0.1,0.1-0.1c0.5-0.5,0.9-1,1.4-1.5c0.6-0.6,1.2-1.2,1.8-1.8
	c0.3-0.3,0.6-0.5,0.9-0.8c0.7-0.6,1.4-1.3,2.1-1.9c8.4-7.4,18.2-12.1,28.9-15.1c3.2-0.9,6.4-1.5,9.5-1.6
	C134.8,113.4,130.7,114,126.4,115.2z M88.2,21.3c8,0.1,16,0.8,24.1,2.2c0.7,0.1,1.5,0.1,2.2-0.1C105.8,21.9,97,21.1,88.2,21.3z
	 M44.8,149.1c-0.3-1.1-0.5-2.3-0.7-3.5c-0.2,0-0.3-0.1-0.5-0.1c-1.3,2.9-2.8,5.7-4,8.6c-3.4,8.5-5.4,17.4-6.8,26.5
	c-2.3,15.2-2.6,30.5-1.9,45.8c0,0.5,0.1,1.1,0.1,1.6l0,0c0,0.9,0.1,1.7,0.1,2.6c0.7,1.4,1.4,2.9,2.1,4.3c0.3,0.6,0.7,1.2,1,1.8
	c0-0.5,0-1,0-1.5c0-0.1,0-0.1,0-0.2l0,0l0,0c0-1.5,0-3-0.1-4.5c-0.1-1.3-0.2-2.7-0.2-4c-0.7-15.3-0.4-30.6,1.9-45.8
	c1.3-9.1,3.3-18,6.8-26.5C43.3,152.4,44,150.7,44.8,149.1L44.8,149.1z M25.2,58.4c-3.3,0.7-6.6,1.6-9.9,2.5c-1.2,0.3-2.4,0.6-3.6,1
	c-0.1,0.2-0.3,0.5-0.4,0.7c1.1-0.2,1.7-0.3,2.3-0.4l1.3-0.3c1.7-0.4,3.3-0.9,5-1.3c0.6-0.2,1.1-0.3,1.7-0.4c2.2-0.6,4.5-1.2,6.7-1.7
	c2.3-0.5,4.5-0.8,6.8-0.9C31.8,57.3,28.5,57.7,25.2,58.4z"/>
<path class="st0" d="M318.2,149.2c-0.3,23.4-5.1,45.8-15.1,67c-1.9,4-4.2,7.7-6.3,11.6c-0.3,0.6-0.8,1.1-1.6,2.1
	c-0.2-1.3-0.4-2.5-0.6-3.6s-0.4-2.1-0.6-3.2c-2.5-12.2-4.7-24.5-7.5-36.7c-3.4-14.8-8-29.1-14.6-42.8c-3.9-8-8.3-15.5-15.1-21.4
	c-2.4-2-4.9-3.7-8.1-4.8c0,0.5-0.1,0.8-0.1,1.2c0,0.2,0,0.3,0,0.5c0.8,9.1-1.6,17.6-5.9,25.6c-6.9,13-16.9,23.4-28.1,32.6
	c-4.2,3.4-8.6,6.6-13.4,10.2c-0.2-0.6-0.4-1.2-0.6-1.8c-0.7-1.9-1.2-3.6-1.8-5.2c-4.9-14-11-27.4-19.3-39.8
	c-5.6-8.4-12.1-16.1-20.7-21.6c-6.3-4-12.9-5.8-19.8-5.5c-3.1,0.1-6.3,0.7-9.5,1.6c-10.7,3.1-20.5,7.8-28.9,15.1
	c-11.2,9.8-18.3,22.2-22.7,36.3c-1.3,4-2,8.1-3.1,12.6c-0.9-0.5-1.8-0.9-2.7-1.4c-12.9-7.1-22.4-16.7-25-32.2
	c-0.2,0-0.3-0.1-0.5-0.1c-0.6,1.2-1.2,2.4-1.8,3.6c-0.8,1.6-1.6,3.3-2.2,5c-3.4,8.5-5.4,17.4-6.8,26.5c-2.3,15.2-2.6,30.5-1.9,45.8
	c0.2,3.4,0.4,6.8,0.3,10.3c-0.3-0.6-0.7-1.2-1-1.8c-0.7-1.4-1.4-2.9-2.1-4.3c-5.8-12.2-11-24.6-15.3-37.4
	c-4.2-12.2-7.5-24.6-9.6-37.3c-1.9-11.8-2.7-23.7-1.4-35.6c2.3-21,10.4-39,28-51.8c3.5-2.6,7.6-4.3,11.5-6.4
	c0.8-0.5,1.8-0.8,2.8-1.2c-1.2-2-3-2.5-4.8-2.9c-2.4-0.5-4.9-0.6-7.3-0.5c-2.3,0.1-4.6,0.4-6.8,0.9c-4.9,1.1-9.8,2.5-14.7,3.8
	c-0.6,0.2-1.1,0.2-2.3,0.4c0.1-0.2,0.3-0.5,0.4-0.7c0.9-1.7,1.7-3.2,2.6-4.6c9.9-15.9,24.3-25.9,42-31.2c10.5-3.1,21.2-4.6,31.9-4.7
	c8.7-0.1,17.5,0.6,26.3,2.1c0.3,0,0.5,0.1,0.8,0.1c1,0.2,2.3,0,3.1-0.5c12.8-7.4,26.6-12.1,41.2-14.8c6-1.1,11.9-1.6,17.8-1.7
	c11.9-0.2,23.6,1.6,35.3,4.6c22.7,5.8,42.7,16.9,59.8,32.9c20.5,19.2,35.1,42.1,42.5,69.3C318.2,125.1,318.4,137.2,318.2,149.2z"/>
<path class="st0" d="M281.3,233.1c-2.4-10-7.4-18.8-14-25.8c-14.2-14.9-36-21.5-57.1-15c-16.5,5.1-28.4,15.8-35.4,31.7
	c-1.1,2.4-1.9,5-2.9,7.5c-10.3-4.1-10.7-4.3-20.2-0.8c-0.4,0.1-0.7,0.3-1.1,0.4c-0.9-2.3-1.6-4.6-2.6-6.8c-2.6-6.4-6.4-12.1-11-16.9
	c-14.5-15.3-37.2-21.8-58.1-14.8c-17.4,5.8-29.4,17.4-35.8,34.7c-4.9,13.4-4.7,27,0.8,40c3.4,8.1,8,14.9,13.6,20.2
	c7.9,7.6,18.1,12.4,30.2,14.4c14.5,2.4,28.1-0.8,40.1-9.2c16.4-11.6,24.7-27.6,24.6-47.9c0-1.2,0.5-2.6,1.1-3.6
	c2.3-3.3,6.8-4.5,11-3.1c1.9,0.6,3.4,1.6,4.3,3c0.8,1.3,1.2,3,1.2,5.1c-0.1,7.7,1.5,15,4.5,22c3.1,7.4,7.6,13.7,13.1,18.9
	c15.1,14.3,37.4,19.6,58,12.1C272.7,289.5,288,260.9,281.3,233.1z M64,280.1c-0.2-0.2-0.4-0.4-0.6-0.6c-0.6-0.5-1.1-1.1-1.6-1.7
	c-0.4-0.5-0.8-1-1.3-1.4c-0.4-0.5-0.8-1-1.2-1.5s-0.8-1-1.1-1.5c-0.4-0.5-0.7-1-1.1-1.6c-0.2-0.2-0.3-0.5-0.4-0.7
	c-0.2-0.3-0.4-0.6-0.6-1c-1-1.6-1.8-3.2-2.6-4.9c-0.3-0.7-0.6-1.4-0.9-2.1c-0.5-1.4-1-2.7-1.4-4.1c-0.1-0.2-0.1-0.3-0.1-0.5
	c-0.1-0.2-0.1-0.5-0.2-0.7c-0.1-0.3-0.2-0.6-0.2-0.9c-0.5-2.2-0.9-4.5-1.1-6.8c0-0.4-0.1-0.8-0.1-1.2v-0.1c0-0.8-0.1-1.6-0.1-2.4
	v-0.7c0.4-25.5,21.2-46.3,46.9-46.2c0.4,0,0.8,0,1.2,0c0.3,0,0.6,0,0.9,0c0.3,0,0.5,0,0.8,0c0.6,0,1.3,0.1,1.9,0.1
	c1,0.1,2,0.2,2.9,0.4c0.3,0,0.6,0.1,0.9,0.1c0.8,0.1,1.6,0.3,2.4,0.5c0.4,0.1,0.8,0.2,1.2,0.3c0.3,0.1,0.6,0.2,0.9,0.3
	c0.5,0.1,0.9,0.3,1.4,0.4c0.3,0.1,0.7,0.2,1,0.3c0.4,0.1,0.8,0.3,1.3,0.5c0.4,0.1,0.7,0.3,1.1,0.4c0.4,0.1,0.7,0.3,1.1,0.4
	c0.5,0.2,1,0.5,1.5,0.7h0.1c0.5,0.3,1.1,0.5,1.6,0.8c0.2,0.1,0.5,0.3,0.7,0.4c0.1,0,0.2,0.1,0.3,0.1c0.4,0.2,0.8,0.5,1.2,0.7
	c1.2,0.7,2.3,1.5,3.4,2.3c0.4,0.3,0.7,0.5,1.1,0.8c0.4,0.3,0.8,0.7,1.2,1c0.2,0.2,0.5,0.4,0.7,0.6c0.6,0.5,1.2,1.1,1.8,1.6
	c0.2,0.2,0.5,0.5,0.7,0.7c0.3,0.3,0.6,0.6,0.9,0.9l0,0l0,0c0.2,0.2,0.4,0.5,0.6,0.7c0.2,0.2,0.4,0.5,0.6,0.7
	c1.2,1.4,2.3,2.8,3.3,4.3c0.3,0.4,0.5,0.8,0.8,1.2c0.1,0.2,0.3,0.4,0.4,0.6c1.7,2.7,3.1,5.6,4.2,8.6c0.1,0.4,0.3,0.7,0.4,1.1
	c0.3,0.7,0.5,1.5,0.7,2.2c0.1,0.4,0.2,0.7,0.3,1.1c0.1,0.2,0.1,0.4,0.1,0.6c0.1,0.3,0.1,0.6,0.2,0.9c0.4,1.6,0.6,3.3,0.8,4.9
	c0,0.3,0.1,0.5,0.1,0.8c0.1,0.9,0.1,1.7,0.2,2.6c0,0.7,0.1,1.4,0.1,2.1c0,25.5-21.4,47.4-48.1,46.6c-0.7,0-1.5-0.1-2.2-0.1
	c-0.6,0-1.1-0.1-1.7-0.2c-0.5,0-1.1-0.1-1.6-0.2c-0.6-0.1-1.1-0.2-1.6-0.3c-0.5-0.1-1-0.2-1.5-0.3c-0.1,0-0.1,0-0.2,0
	c-0.3,0-0.5-0.1-0.8-0.2c-0.4-0.1-0.7-0.2-1-0.3c-0.1,0-0.1,0-0.1,0c-0.3-0.1-0.6-0.2-1-0.3c-0.7-0.2-1.4-0.4-2.1-0.7
	c-0.3-0.1-0.7-0.2-1-0.4c-0.3-0.1-0.7-0.3-1-0.4s-0.6-0.3-1-0.4c-0.3-0.1-0.6-0.3-1-0.4c-0.6-0.3-1.3-0.6-1.9-0.9l0,0
	c-0.6-0.3-1.2-0.6-1.9-1c-0.3-0.2-0.6-0.4-0.9-0.5s-0.6-0.4-0.9-0.5c-0.3-0.2-0.6-0.4-0.9-0.6s-0.6-0.4-0.9-0.6s-0.6-0.4-0.9-0.6
	c-0.3-0.2-0.6-0.4-0.8-0.6c-0.5-0.4-1.1-0.8-1.6-1.2c-0.3-0.2-0.6-0.5-0.9-0.7s-0.5-0.5-0.8-0.7c-0.2-0.2-0.4-0.4-0.6-0.6
	c-0.1,0-0.1-0.1-0.2-0.1C64.1,280.2,64.1,280.2,64,280.1z M179.7,246.2c0-25.8,21-46.7,46.8-46.7c13.3-0.2,25.5,5.6,34.1,14.7
	c7.9,8.4,12.8,19.8,12.8,32.1c-0.1,25.9-21,46.7-47,46.7c-12.3,0-23.6-4.9-31.9-12.8C185.3,271.8,179.6,259.6,179.7,246.2z"/>
<path class="st2" d="M125.4,169.1c6.5,7.1,12.8,14,19.1,20.8c-0.1,0.3-0.1,0.5-0.2,0.6c-4.2,4.6-4.2,4.6-8.3,0.1
	c-6.9-7.4-13.7-14.9-20.5-22.3c-0.4-0.4-0.7-0.9-1.3-1.6c6.7-3,13.3-5.9,20.2-8.9c-6.5-7.3-12.9-14.3-19.4-21.5
	c1.5-1.3,2.8-2.6,4.2-3.7c0.3-0.3,1.4-0.2,1.6,0.1c8.1,8.9,16.2,17.9,24.2,26.9c0.1,0.1,0.1,0.4,0.2,0.8
	C138.7,163.1,132.2,166,125.4,169.1z"/>
<path class="st1" d="M127.3,211.5c0.9,0.7,1.7,1.4,2.6,2.2C129,213,128.1,212.2,127.3,211.5z"/>
<path class="st1" d="M130.3,214.2L130.3,214.2c-0.2-0.1-0.3-0.3-0.5-0.5C130,213.9,130.2,214,130.3,214.2z"/>
</svg>
